<svg xmlns="http://www.w3.org/2000/svg" width="600" height="400" viewBox="0 0 600 400"><rect width="100%" height="100%" fill="#EEE"/><path fill="#31343C" d="M155.05 210.165h-15.07v31.54h-15.83v-78.91h29.76q13.49 0 21.11 6.15 7.61 6.15 7.61 17.15 0 6.13-3.19 10.52-3.2 4.39-9.38 7.1 6.99 2.06 10.05 6.88 3.07 4.82 3.07 11.92v5.8q0 3.31.89 6.91.89 3.61 3.06 5.34v1.14h-16.31q-2.17-1.73-2.82-5.8-.65-4.06-.65-7.7v-5.58q0-5.91-3.22-9.18-3.23-3.28-9.08-3.28Zm-15.07-35.18v22.98h13.66q6.66 0 9.94-2.82 3.28-2.82 3.28-8.34 0-5.42-3.28-8.62-3.28-3.2-9.67-3.2h-13.93Zm53.82 37.99v-1.13q0-13.12 7.32-21.49 7.31-8.38 20.27-8.38 13 0 20.38 8.35 7.37 8.35 7.37 21.52v1.13q0 13.23-7.35 21.55-7.34 8.32-20.29 8.32-13.01 0-20.36-8.32-7.34-8.32-7.34-21.55Zm15.77-1.13v1.13q0 8.03 2.82 12.88 2.82 4.85 9.11 4.85 6.12 0 8.97-4.88 2.84-4.88 2.84-12.85v-1.13q0-7.81-2.87-12.74-2.87-4.93-9.05-4.93-6.13 0-8.97 4.96-2.85 4.96-2.85 12.71Zm102.22 1.03v1.13q0 13.12-5.85 20.98-5.86 7.86-16.91 7.86-5.1 0-8.92-2.14-3.82-2.14-6.48-6.26l-1.19 7.26h-13.55v-84.55h15.77v32.14q2.55-3.52 6.1-5.42t8.16-1.9q11.16 0 17.02 8.43 5.85 8.43 5.85 22.47Zm-15.77 1.13v-1.13q0-8.57-2.52-13.58t-8.59-5.01q-3.69 0-6.23 1.54-2.55 1.55-4.02 4.42v24.82q1.47 2.66 4.04 4.07 2.58 1.4 6.32 1.4 6.12 0 8.56-4.3 2.44-4.31 2.44-12.23Zm23.09-1.03v-1.13q0-13.12 7.31-21.49 7.32-8.38 20.28-8.38 13 0 20.37 8.35 7.38 8.35 7.38 21.52v1.13q0 13.23-7.35 21.55-7.34 8.32-20.3 8.32-13 0-20.35-8.32-7.34-8.32-7.34-21.55Zm15.77-1.13v1.13q0 8.03 2.82 12.88 2.82 4.85 9.1 4.85 6.13 0 8.97-4.88 2.85-4.88 2.85-12.85v-1.13q0-7.81-2.87-12.74-2.88-4.93-9.05-4.93-6.13 0-8.97 4.96-2.85 4.96-2.85 12.71Zm52.3-43.15h15.83v14.37h9.86v11.11h-9.86v29.86q0 3.42 1.41 4.88t3.79 1.46q1.25 0 2.14-.13.9-.14 2.09-.46l1.35 11.43q-2.38.82-4.66 1.22-2.27.41-4.93.41-8.18 0-12.6-4.5t-4.42-14.25v-29.92h-8.56v-11.11h8.56v-14.37Zm33.33 44.28v-1.13q0-13.12 7.32-21.49 7.32-8.38 20.27-8.38 13.01 0 20.38 8.35 7.37 8.35 7.37 21.52v1.13q0 13.23-7.34 21.55-7.35 8.32-20.3 8.32-13.01 0-20.35-8.32-7.35-8.32-7.35-21.55Zm15.78-1.13v1.13q0 8.03 2.82 12.88 2.81 4.85 9.1 4.85 6.13 0 8.97-4.88 2.85-4.88 2.85-12.85v-1.13q0-7.81-2.88-12.74-2.87-4.93-9.05-4.93-6.12 0-8.97 4.96-2.84 4.96-2.84 12.71Z"/></svg>